<svg xmlns="http://www.w3.org/2000/svg" width="1641" height="426" fill="none"><rect width="1641" height="426" fill="#F7F7F7" rx="200"/><path fill="#575859" d="m658.33 302-35.278-128.418h26.367l23.437 101.074h.489l26.733-101.074h25.391l26.855 101.074h.611l23.437-101.074h26.123L767.339 302h-27.466l-26.977-96.191h-.611L685.552 302H658.33zm219.356 2.563c-37.72 0-60.547-25.756-60.547-66.284v-.122c0-40.161 23.193-67.016 59.204-67.016 36.011 0 58.105 25.879 58.105 64.453v8.911h-90.942c.488 24.292 13.794 38.452 34.79 38.452 15.625 0 26.001-8.057 29.297-17.7l.366-.977h25.024l-.244 1.343c-4.15 20.386-23.926 38.94-55.053 38.94zm-1.221-111.816c-17.09 0-30.274 11.597-32.593 33.081h64.453c-2.197-22.217-14.648-33.081-31.86-33.081zm151.725 111.816c-18.43 0-32.711-9.277-40.28-24.292h-.61V302h-26.367V125.853H987.3v69.58h.61c7.691-15.137 22.34-24.292 40.53-24.292 32.22 0 53.46 25.634 53.46 66.528v.122c0 40.894-21.11 66.772-53.71 66.772zm-6.95-22.705c20.75 0 33.69-16.723 33.69-44.067v-.122c0-27.1-12.94-43.945-33.69-43.945-19.9 0-34.062 17.334-34.062 43.945v.122c0 26.733 14.042 44.067 34.062 44.067zm134.02 22.705c-32.71 0-53.71-25.878-53.71-66.772v-.122c0-40.894 21.24-66.528 53.47-66.528 18.19 0 32.84 9.155 40.53 24.292h.49v-69.58h26.48V302h-26.48v-21.729h-.49c-7.69 15.015-21.85 24.292-40.29 24.292zm6.96-22.705c19.9 0 33.94-17.334 33.94-44.067v-.122c0-26.611-14.16-43.945-33.94-43.945-20.75 0-33.69 16.845-33.69 43.945v.122c0 27.344 12.82 44.067 33.69 44.067zm147.21 22.705c-37.72 0-60.54-25.756-60.54-66.284v-.122c0-40.161 23.19-67.016 59.2-67.016 36.01 0 58.11 25.879 58.11 64.453v8.911h-90.95c.49 24.292 13.8 38.452 34.79 38.452 15.63 0 26-8.057 29.3-17.7l.37-.977h25.02l-.24 1.343c-4.15 20.386-23.93 38.94-55.06 38.94zm-1.22-111.816c-17.09 0-30.27 11.597-32.59 33.081h64.45c-2.19-22.217-14.65-33.081-31.86-33.081zM1422.1 302l-46.27-128.418h28.08l32.23 102.661h.61l32.22-102.661h27.47L1450.42 302h-28.32z"/><path stroke="#575859" stroke-linecap="round" stroke-width="60" d="m421 293-82.001-152M253 290l-82.001-152"/><circle cx="171" cy="138" r="37" fill="#D05F5F" stroke="#F7F7F7" stroke-width="16"/><path stroke="#D05F5F" stroke-linecap="round" stroke-width="61" d="M253 289.558 338.77 141m81.615 152.337 85.77-148.558"/></svg>